# Blender v3.3.0 OBJ File: ''
# www.blender.org
mtllib portrait.mtl
o portrait_Witch_01_Linum_low.001
v -0.828230 -1.242345 0.033645
v 0.828230 -1.242345 0.033645
v -0.828230 1.242345 0.033646
v 0.828230 1.242345 0.033646
v -0.937287 1.351402 0.132101
v 0.937287 -1.351402 0.132101
v -0.937287 -1.351402 0.132101
v 0.937287 1.351402 0.132101
v -0.978933 1.393048 0.099179
v 0.978933 -1.393048 0.099179
v -0.978933 -1.393048 0.099179
v 0.978933 1.393048 0.099179
v -0.958469 -1.372584 0.132101
v -0.975979 -1.390094 0.115149
v -0.975979 1.390094 0.115150
v -0.958469 1.372584 0.132101
v 0.958469 1.372584 0.132101
v 0.975979 1.390094 0.115150
v 0.975979 -1.390094 0.115149
v 0.958469 -1.372584 0.132101
v -0.902316 -1.316431 0.113947
v -0.839404 -1.253519 0.099492
v -0.871460 -1.285575 0.104108
v 0.902316 1.316431 0.113947
v 0.839404 1.253519 0.099493
v 0.871460 1.285575 0.104108
v -0.839404 1.253519 0.099493
v -0.902316 1.316431 0.113947
v -0.871460 1.285575 0.104108
v 0.839404 -1.253519 0.099492
v 0.902316 -1.316431 0.113947
v 0.871460 -1.285575 0.104108
v -0.831653 -1.245769 0.099275
v -0.828230 -1.242345 0.095754
v -0.829233 -1.243348 0.098204
v 0.831653 -1.245769 0.099275
v 0.828230 -1.242345 0.095754
v 0.829233 -1.243348 0.098204
v -0.828230 1.242345 0.095755
v -0.831653 1.245769 0.099275
v -0.829233 1.243348 0.098204
v 0.831653 1.245769 0.099275
v 0.828230 1.242345 0.095755
v 0.829233 1.243348 0.098204
v -1.016789 1.430904 0.099179
v -1.020213 1.434328 0.095755
v -1.019210 1.433325 0.098176
v -1.020213 -1.434328 0.095754
v -1.016789 -1.430904 0.099179
v -1.019210 -1.433325 0.098176
v 1.020213 -1.434328 0.095754
v 1.016789 -1.430904 0.099179
v 1.019210 -1.433325 0.098176
v 1.020213 1.434328 0.095755
v 1.016789 1.430904 0.099179
v 1.019210 1.433325 0.098176
v -0.828230 -1.242345 0.001843
v -0.830073 -1.244188 -0.000000
v -0.828961 -1.243076 0.000540
v 0.828230 -1.242345 0.001843
v 0.830073 -1.244188 -0.000000
v 0.828961 -1.243076 0.000540
v -0.830073 1.244188 0.000000
v -0.828230 1.242345 0.001843
v -0.828961 1.243076 0.000540
v 0.828230 1.242345 0.001843
v 0.830073 1.244188 0.000000
v 0.828961 1.243076 0.000540
v -1.020213 1.434328 0.001843
v -1.018370 1.432485 0.000000
v -1.019482 1.433598 0.000540
v -1.018370 -1.432485 -0.000000
v -1.020213 -1.434328 0.001843
v -1.019482 -1.433598 0.000540
v 1.018370 -1.432485 -0.000000
v 1.020213 -1.434328 0.001843
v 1.019482 -1.433598 0.000540
v 1.018370 1.432485 0.000000
v 1.020213 1.434328 0.001843
v 1.019482 1.433598 0.000540
vt 0.394270 0.149550
vt 0.863604 0.149550
vt 0.863604 0.853551
vt 0.394270 0.853551
vt 0.382879 0.901840
vt 0.865336 0.901841
vt 0.867584 0.904090
vt 0.380631 0.904090
vt 0.134265 0.940672
vt 0.134265 0.460285
vt 0.188751 0.405798
vt 0.188751 0.995158
vt 0.385711 0.097920
vt 0.866182 0.097920
vt 0.866182 0.125160
vt 0.385711 0.125160
vt 0.864343 0.900305
vt 0.383872 0.900305
vt 0.383872 0.873065
vt 0.864343 0.873065
vt 0.330025 0.006254
vt 0.921868 0.006254
vt 0.921868 0.033494
vt 0.330025 0.033494
vt 0.909894 0.045994
vt 0.341998 0.045994
vt 0.331018 0.035014
vt 0.920874 0.035014
vt 0.920029 0.991971
vt 0.328186 0.991971
vt 0.328186 0.964731
vt 0.920029 0.964731
vt 0.954302 0.903054
vt 0.954302 0.097053
vt 0.965254 0.086102
vt 0.965254 0.914006
vt 0.301023 0.097033
vt 0.301023 0.903034
vt 0.290071 0.913985
vt 0.290071 0.086082
vt 0.994083 0.085019
vt 0.994083 0.914996
vt 0.966912 0.914996
vt 0.966912 0.085019
vt 0.261242 0.915069
vt 0.261242 0.085091
vt 0.288413 0.085091
vt 0.288413 0.915069
vt 0.902514 0.140651
vt 0.902514 0.859457
vt 0.875346 0.859457
vt 0.875346 0.140651
vt 0.340160 0.952230
vt 0.908056 0.952231
vt 0.919036 0.963211
vt 0.329179 0.963211
vt 0.867174 0.096384
vt 0.384718 0.096384
vt 0.382470 0.094135
vt 0.869422 0.094135
vt 0.352239 0.934307
vt 0.895976 0.934307
vt 0.902120 0.940450
vt 0.346096 0.940450
vt 0.341017 0.947519
vt 0.907199 0.947520
vt 0.909037 0.050705
vt 0.342855 0.050705
vt 0.887671 0.075348
vt 0.364222 0.075347
vt 0.354078 0.063918
vt 0.897814 0.063918
vt 0.362383 0.922877
vt 0.885832 0.922877
vt 0.006103 0.936764
vt 0.006102 0.219780
vt 0.060357 0.165525
vt 0.060357 0.991018
vt 0.352811 0.859437
vt 0.352811 0.140631
vt 0.379979 0.140631
vt 0.379979 0.859437
vt 0.125942 0.455130
vt 0.125942 0.935517
vt 0.071456 0.990003
vt 0.071456 0.400643
vt 0.925026 0.880889
vt 0.925027 0.119218
vt 0.936426 0.109101
vt 0.936426 0.891006
vt 0.330298 0.119198
vt 0.330298 0.880869
vt 0.318899 0.890986
vt 0.318899 0.109081
vt 0.347934 0.057774
vt 0.903958 0.057775
vt 0.949604 0.902200
vt 0.949604 0.097908
vt 0.942553 0.102974
vt 0.942553 0.897134
vt 0.312772 0.897114
vt 0.312772 0.102953
vt 0.305721 0.902179
vt 0.305721 0.097888
vt 0.339668 0.128124
vt 0.339668 0.871943
vt 0.349037 0.137398
vt 0.349037 0.862669
vt 0.915657 0.871963
vt 0.915657 0.128145
vt 0.906288 0.862689
vt 0.906288 0.137418
vt 0.371333 0.913483
vt 0.876882 0.913484
vt 0.878721 0.084742
vt 0.373172 0.084741
vt 0.904045 0.860447
vt 0.904045 0.139660
vt 0.351280 0.860427
vt 0.351280 0.139640
vt 0.352046 0.140341
vt 0.352046 0.859727
vt 0.866472 0.097152
vt 0.385420 0.097152
vt 0.903279 0.859747
vt 0.903279 0.140361
vt 0.383581 0.901073
vt 0.864634 0.901073
vt 0.289243 0.085381
vt 0.289243 0.914751
vt 0.921577 0.034254
vt 0.330316 0.034254
vt 0.966082 0.914706
vt 0.966082 0.085336
vt 0.328477 0.963971
vt 0.919738 0.963971
vt 0.380699 0.140279
vt 0.380698 0.859648
vt 0.196393 0.940350
vt 0.196392 0.224331
vt 0.197109 0.223686
vt 0.197109 0.940670
vt 0.866417 0.125640
vt 0.385499 0.125640
vt 0.133785 0.940350
vt 0.133785 0.460716
vt 0.874626 0.859808
vt 0.874627 0.140440
vt 0.005386 0.936444
vt 0.005385 0.220425
vt 0.383637 0.872585
vt 0.864555 0.872585
vt 0.126422 0.455451
vt 0.126422 0.935085
vt 0.251364 0.994924
vt 0.251363 0.169431
vt 0.252190 0.168688
vt 0.252190 0.995245
vt 0.260412 0.914857
vt 0.260412 0.085497
vt 0.189341 0.405267
vt 0.189341 0.995480
vt 0.330236 0.005662
vt 0.921578 0.005662
vt 0.061183 0.164782
vt 0.061183 0.991338
vt 0.994913 0.085230
vt 0.994913 0.914590
vt 0.070866 0.990534
vt 0.070866 0.400322
vt 0.919817 0.992563
vt 0.328475 0.992563
vn 0.0000 -0.0000 1.0000
vn 0.0643 -0.0643 0.9959
vn -0.0643 -0.0643 0.9959
vn -0.0572 -0.0572 0.9967
vn 0.0572 -0.0572 0.9967
vn 0.0586 0.0586 -0.9966
vn -0.0586 0.0586 -0.9966
vn 0.1707 -0.1708 -0.9704
vn -0.1707 -0.1707 -0.9704
vn 0.0000 0.9771 0.2130
vn 0.0000 0.9587 -0.2845
vn 0.0000 -0.9771 0.2130
vn 0.0000 -0.9587 -0.2845
vn 0.0000 -0.9778 -0.2097
vn -0.0000 -0.9856 0.1694
vn -0.1482 -0.1482 0.9778
vn 0.1482 -0.1482 0.9778
vn -0.0000 0.9778 -0.2097
vn 0.0000 0.9856 0.1694
vn 0.1482 0.1482 0.9778
vn -0.1482 0.1482 0.9778
vn 0.9778 0.0000 -0.2098
vn 0.9856 -0.0000 0.1694
vn -0.9778 0.0000 -0.2098
vn -0.9856 -0.0000 0.1694
vn -0.9771 -0.0000 0.2129
vn -0.9587 0.0000 -0.2845
vn -0.0643 0.0643 0.9959
vn 0.0643 0.0643 0.9959
vn 0.0572 0.0572 0.9967
vn -0.0572 0.0572 0.9967
vn 0.0624 -0.0624 0.9961
vn -0.0624 -0.0624 0.9961
vn 0.2939 0.2938 0.9096
vn -0.2939 0.2938 0.9096
vn 0.0000 0.9221 0.3871
vn 0.0000 0.9833 0.1819
vn 0.0000 -0.9221 0.3871
vn 0.0000 -0.9833 0.1819
vn -0.2205 0.2205 0.9501
vn 0.2205 0.2205 0.9501
vn 0.0624 0.0624 0.9961
vn -0.0624 0.0624 0.9961
vn 0.2205 -0.2205 0.9501
vn -0.2205 -0.2205 0.9501
vn -0.0586 -0.0586 -0.9966
vn 0.1707 0.1707 -0.9704
vn 0.9771 -0.0000 0.2129
vn 0.9587 0.0000 -0.2845
vn 0.0586 -0.0586 -0.9966
vn -0.1707 0.1708 -0.9704
vn -0.2939 -0.2938 0.9096
vn 0.2939 -0.2938 0.9096
vn 0.9221 -0.0000 0.3871
vn 0.9833 -0.0000 0.1819
vn -0.9221 -0.0000 0.3871
vn -0.9833 -0.0000 0.1819
vn 0.1342 0.1342 0.9818
vn 0.1342 -0.1342 0.9818
vn -0.1342 -0.1342 0.9818
vn -0.1342 0.1342 0.9818
vn 0.3477 0.3477 0.8708
vn 0.3477 -0.3477 0.8708
vn -0.3477 0.3477 0.8708
vn -0.3477 -0.3477 0.8708
vn -0.4975 -0.4975 0.7107
vn -0.4975 0.4975 0.7107
vn 0.4975 -0.4975 0.7107
vn 0.4975 0.4975 0.7107
vn 0.3333 0.3333 -0.8819
vn 0.3333 -0.3333 -0.8819
vn -0.3333 0.3333 -0.8819
vn -0.3333 -0.3333 -0.8819
vn -0.4624 -0.4625 -0.7565
vn -0.4624 0.4625 -0.7565
vn 0.4624 -0.4625 -0.7565
vn 0.4624 0.4625 -0.7565
usemtl OldPortraitWitch_01.001
s 1
f 1/1/1 2/2/1 4/3/1 3/4/1
f 40/5/2 42/6/3 25/7/4 27/8/5
f 58/9/6 61/10/7 75/11/8 72/12/9
f 34/13/10 37/14/10 60/15/11 57/16/11
f 43/17/12 39/18/12 64/19/13 66/20/13
f 73/21/14 76/22/14 51/23/15 48/24/15
f 10/25/1 11/26/1 49/27/16 52/28/17
f 79/29/18 69/30/18 46/31/19 54/32/19
f 12/33/1 10/34/1 52/35/17 55/36/20
f 11/37/1 9/38/1 45/39/21 49/40/16
f 76/41/22 79/42/22 54/43/23 51/44/23
f 69/45/24 73/46/24 48/47/25 46/48/25
f 37/49/26 43/50/26 66/51/27 60/52/27
f 9/53/1 12/54/1 55/55/20 45/56/21
f 36/57/28 33/58/29 22/59/30 30/60/31
f 5/61/32 8/62/33 17/63/34 16/64/35
f 15/65/36 18/66/36 12/54/37 9/53/37
f 19/67/38 14/68/38 11/26/39 10/25/39
f 31/69/40 21/70/41 7/71/42 6/72/43
f 28/73/44 24/74/45 8/62/33 5/61/32
f 61/75/7 67/76/46 78/77/47 75/78/8
f 39/79/48 34/80/48 57/81/49 64/82/49
f 67/83/46 63/84/50 70/85/51 78/86/47
f 24/87/45 31/88/40 6/89/43 8/90/33
f 21/91/41 28/92/44 5/93/32 7/94/42
f 6/72/43 7/71/42 13/95/52 20/96/53
f 18/97/54 19/98/54 10/34/55 12/33/55
f 8/90/33 6/89/43 20/99/53 17/100/34
f 7/94/42 5/93/32 16/101/35 13/102/52
f 14/68/38 19/67/38 20/96/53 13/95/52
f 18/66/36 15/65/36 16/64/35 17/63/34
f 19/98/54 18/97/54 17/100/34 20/99/53
f 15/103/56 14/104/56 13/102/52 16/101/35
f 14/104/56 15/103/56 9/38/57 11/37/57
f 28/92/44 21/91/41 23/105/58 29/106/59
f 29/106/59 23/105/58 22/107/30 27/108/5
f 31/88/40 24/87/45 26/109/60 32/110/61
f 32/110/61 26/109/60 25/111/4 30/112/31
f 24/74/45 28/73/44 29/113/59 26/114/60
f 26/114/60 29/113/59 27/8/5 25/7/4
f 21/70/41 31/69/40 32/115/61 23/116/58
f 23/116/58 32/115/61 30/60/31 22/59/30
f 42/117/3 36/118/28 30/112/31 25/111/4
f 40/119/2 33/120/29 35/121/62 41/122/63
f 41/122/63 35/121/62 34/80/48 39/79/48
f 33/58/29 36/57/28 38/123/64 35/124/62
f 35/124/62 38/123/64 37/14/10 34/13/10
f 36/118/28 42/117/3 44/125/65 38/126/64
f 38/126/64 44/125/65 43/50/26 37/49/26
f 42/6/3 40/5/2 41/127/63 44/128/65
f 44/128/65 41/127/63 39/18/12 43/17/12
f 46/48/25 48/47/25 50/129/66 47/130/67
f 47/130/67 50/129/66 49/40/16 45/39/21
f 48/24/15 51/23/15 53/131/68 50/132/66
f 50/132/66 53/131/68 52/28/17 49/27/16
f 51/44/23 54/43/23 56/133/69 53/134/68
f 53/134/68 56/133/69 55/36/20 52/35/17
f 54/32/19 46/31/19 47/135/67 56/136/69
f 56/136/69 47/135/67 45/56/21 55/55/20
f 33/120/29 40/119/2 27/108/5 22/107/30
f 64/82/49 57/81/49 59/137/70 65/138/71
f 65/139/71 59/140/70 58/141/6 63/142/50
f 57/16/11 60/15/11 62/143/72 59/144/70
f 59/145/70 62/146/72 61/10/7 58/9/6
f 60/52/27 66/51/27 68/147/73 62/148/72
f 62/149/72 68/150/73 67/76/46 61/75/7
f 66/20/13 64/19/13 65/151/71 68/152/73
f 68/153/73 65/154/71 63/84/50 67/83/46
f 70/155/51 72/156/9 74/157/74 71/158/75
f 71/159/75 74/160/74 73/46/24 69/45/24
f 72/12/9 75/11/8 77/161/76 74/162/74
f 74/163/74 77/164/76 76/22/14 73/21/14
f 75/78/8 78/77/47 80/165/77 77/166/76
f 77/167/76 80/168/77 79/42/22 76/41/22
f 78/86/47 70/85/51 71/169/75 80/170/77
f 80/171/77 71/172/75 69/30/18 79/29/18
f 63/142/50 58/141/6 72/156/9 70/155/51
