# Blender 3.3.0
# www.blender.org
mtllib meteorite.mtl
o Cube
v -0.029600 -1.118423 0.700179
v 0.174344 -0.841541 1.009509
v 0.141112 -0.999989 -0.895769
v 0.065585 0.482629 -0.819129
v 0.030674 0.318300 0.680048
v 0.055586 -0.318918 1.113934
v 0.101628 -0.252542 -1.189298
v 0.121327 -1.305268 -0.063667
v 0.015779 0.674498 -0.078675
v -2.014234 0.271940 0.798313
v -2.034663 0.542010 0.485690
v -0.338053 0.481398 0.802806
v -1.806753 0.634722 -0.834880
v -1.712004 0.375352 -1.128754
v -0.221078 0.724713 -1.014647
v -2.144890 -0.066853 0.846589
v -1.855641 -0.246475 1.193998
v -1.868192 0.006774 -1.101499
v -1.538692 -0.175249 -1.411628
v 1.097978 -1.028888 0.737926
v 0.597160 -0.980716 0.818272
v 1.087064 -0.988386 -0.803703
v 0.600971 -1.004027 -0.860905
v 0.981694 0.354444 -0.636535
v 0.504603 0.416999 -0.729650
v 1.050034 0.177061 0.627164
v 0.528453 0.242403 0.661931
v 0.548430 -0.271313 -1.110632
v 1.025505 -0.296146 -0.997310
v 0.555384 -0.399995 1.048693
v 1.078965 -0.449928 0.963688
v 0.510953 0.605011 -0.036443
v 1.024314 0.509775 -0.000562
v 0.619585 -1.292860 -0.038629
v 1.134132 -1.269353 -0.040880
v -0.318462 -1.066085 0.847483
v -0.217635 -1.034755 -0.942162
v -0.391294 -0.371256 1.203288
v -0.257700 -0.248264 -1.337513
v -0.247081 -1.354318 -0.024591
v -0.423908 0.873380 -0.122885
v -0.526232 0.676047 0.589028
v -0.517699 0.309374 1.000256
v -0.358964 0.532619 -1.217116
v -0.410580 0.862880 -0.838900
v -0.612832 -1.111772 0.955421
v -0.512915 -1.080725 -1.003932
v -0.751957 -0.389168 1.288722
v -1.149187 -0.331130 1.337545
v -0.942783 -0.225197 -1.499844
v -0.585428 -0.261664 -1.433068
v -0.968260 -1.430808 0.003681
v -0.581410 -1.408547 -0.005490
v -0.797587 0.970186 -0.148046
v -1.204660 0.976073 -0.166310
v -0.844217 0.741154 0.541348
v -1.251117 0.731309 0.495413
v -1.230262 0.270797 1.033401
v -0.830152 0.286053 1.050067
v -0.649068 0.481562 -1.288309
v -1.019415 0.430534 -1.299536
v -1.113016 0.854838 -0.814754
v -0.720631 0.895916 -0.826933
v -1.654843 -0.769450 1.091450
v -1.728343 -0.931710 0.777513
v -2.043830 -0.537881 0.810347
v -1.896663 -0.479255 1.099179
v -2.051852 -0.338794 0.984848
v -1.081969 -0.934224 1.225591
v -1.047771 -1.250469 0.833371
v -0.878448 -1.173300 1.123819
v -1.427631 -0.766273 -1.160834
v -1.570631 -0.928664 -0.821923
v -1.605544 -0.444454 -1.257596
v -1.833828 -0.501373 -0.947530
v -1.756598 -0.291749 -1.184677
v -0.956457 -1.250427 -0.834789
v -0.932539 -0.908665 -1.271506
v -0.765294 -1.167535 -1.135756
v 1.382202 0.212227 -0.499300
v 1.608602 0.111785 -0.405352
v 1.720568 -0.836449 -0.573584
v 1.489007 -0.898759 -0.670103
v 1.478582 0.057167 0.521412
v 1.719730 -0.030240 0.438262
v 1.521927 -0.946147 0.604467
v 1.755981 -0.871559 0.513780
v 1.476685 -0.331853 -0.771011
v 1.724599 -0.219894 -0.539484
v 1.760339 -0.501078 -0.591757
v 1.830598 -0.578195 0.569471
v 1.821399 -0.331404 0.547583
v 1.561972 -0.458814 0.752341
v 1.788546 0.079951 0.145143
v 1.750611 0.121631 -0.097495
v 1.497046 0.294782 0.020066
v 1.856191 -0.922811 -0.191362
v 1.868225 -0.933847 0.132539
v 1.606566 -1.098728 -0.039923
v 1.962910 -0.265217 0.193330
v 1.991137 -0.610273 0.190970
v 1.966571 -0.584192 -0.206539
v 1.926132 -0.226358 -0.170203
v -1.864256 -1.018333 0.298733
v -1.801914 -1.012342 -0.325147
v -1.649399 -1.229678 0.001612
v -2.090105 0.628844 -0.445309
v -2.189356 0.587729 0.122524
v -1.993256 0.807515 -0.170754
v -2.057563 -0.574740 -0.516690
v -2.158819 -0.603405 0.406243
v -2.307010 0.142031 0.365155
v -2.167058 0.194972 -0.620784
v -1.504017 0.756397 -0.797111
v -1.644729 0.239131 0.957044
v -1.677787 0.658983 0.451282
v -1.511424 -0.293067 1.287628
v -1.379351 0.361856 -1.256710
v -1.186052 -0.800827 -1.240139
v -1.615741 0.903527 -0.177986
v -1.245402 -1.162897 -0.745992
v -1.242103 -0.209316 -1.476743
v -1.305244 -1.345088 0.002416
v -1.357762 -1.161201 0.734665
v -1.381277 -0.818542 1.178264
v -1.935921 -0.964431 -0.013446
v -2.233020 0.563490 -0.151522
v -2.138801 -0.667350 -0.042751
v -2.310302 0.277906 -0.128655
v -2.379795 -0.052425 0.189711
v -2.325414 -0.343075 0.208954
v -2.261288 -0.325960 -0.359414
v -2.305067 -0.027218 -0.394635
v -2.361340 -0.017777 -0.102948
v -2.301782 -0.350494 -0.073167
v -2.029924 -0.201021 -0.821101
v -2.222934 -0.253131 0.622510
vn 0.8693 -0.3440 0.3549
vn 0.1872 0.9812 -0.0475
vn -0.6760 -0.1435 -0.7228
vn 0.3497 0.4440 0.8250
vn -0.7595 0.3284 -0.5616
vn 0.4281 0.4611 -0.7773
vn 0.8732 -0.2161 -0.4367
vn 0.1728 0.9534 -0.2474
vn 0.1199 0.8914 0.4371
vn 0.3506 0.8368 0.4205
vn 0.8118 0.4402 0.3837
vn 0.5482 0.8330 -0.0750
vn 0.2566 -0.3849 -0.8866
vn 0.4288 0.8371 0.3398
vn 0.3357 0.4407 0.8325
vn 0.5771 0.2929 -0.7624
vn 0.0293 -0.9408 -0.3378
vn 0.3918 -0.1877 -0.9007
vn 0.1698 -0.9362 -0.3076
vn -0.9402 0.2145 -0.2646
vn 0.2991 -0.9130 0.2775
vn 0.1113 -0.9369 -0.3314
vn 0.0810 -0.9250 0.3713
vn -0.2044 0.9505 -0.2340
vn 0.3161 -0.8847 -0.3428
vn 0.0164 0.7465 0.6652
vn 0.2012 -0.2575 0.9451
vn 0.1539 0.5378 0.8289
vn 0.2371 0.1914 -0.9525
vn 0.1087 -0.3366 -0.9354
vn 0.4042 0.8834 -0.2370
vn 0.1667 0.3281 0.9298
vn -0.2860 -0.4031 -0.8693
vn 0.2077 0.4656 -0.8603
vn 0.0425 0.7506 -0.6594
vn -0.0690 0.7468 -0.6615
vn 0.0572 -0.4444 0.8940
vn 0.0517 0.7454 0.6646
vn 0.3039 -0.2258 0.9256
vn -0.8678 -0.4968 -0.0033
vn 0.1873 -0.9547 -0.2314
vn -0.7258 -0.0156 0.6878
vn -0.1919 -0.2211 0.9562
vn 0.1647 -0.2810 -0.9455
vn 0.1842 0.9500 -0.2522
vn 0.0030 -0.9474 0.3202
vn 0.1526 0.4943 0.8558
vn 0.2272 0.4833 -0.8455
vn 0.1152 -0.3584 0.9264
vn 0.1359 0.8792 0.4566
vn 0.0554 -0.9389 -0.3398
vn 0.3596 -0.3149 0.8784
vn -0.8103 0.4104 0.4184
vn -0.4179 -0.8726 0.2528
vn 0.2097 -0.9280 0.3079
vn 0.2594 -0.4267 -0.8664
vn -0.1839 0.7467 0.6393
vn -0.1385 0.4636 0.8752
vn -0.1822 0.9244 0.3351
vn -0.2159 0.7054 -0.6751
vn 0.1867 0.9342 0.3041
vn -0.3811 0.2964 -0.8757
vn 0.0768 -0.9546 0.2877
vn 0.1669 -0.9557 0.2425
vn 0.3094 -0.3436 -0.8867
vn -0.0743 0.7494 0.6580
vn 0.0582 0.3966 0.9161
vn -0.0305 0.9439 0.3289
vn -0.0899 0.7375 -0.6694
vn -0.0423 0.9877 -0.1508
vn 0.0984 0.2476 -0.9639
vn 0.2956 -0.3816 0.8758
vn -0.7565 -0.4480 0.4764
vn -0.5448 -0.6754 0.4970
vn -0.6753 -0.5774 0.4588
vn -0.3663 -0.7629 0.5327
vn -0.4206 -0.8524 -0.3108
vn -0.6975 -0.4089 -0.5885
vn -0.5579 -0.6385 -0.5302
vn -0.6394 -0.5392 -0.5480
vn -0.3582 -0.7484 -0.5582
vn -0.6918 -0.5751 -0.4367
vn 0.6113 0.2191 -0.7605
vn 0.5883 0.0932 0.8033
vn 0.5787 0.8140 0.0493
vn 0.5554 -0.8302 -0.0489
vn 0.9923 0.1009 -0.0714
vn 0.4467 -0.1304 -0.8851
vn 0.4381 -0.2865 0.8520
vn 0.4279 0.8098 0.4015
vn 0.3860 -0.8579 -0.3392
vn 0.4946 0.4605 -0.7371
vn 0.4246 0.4283 0.7977
vn 0.9210 0.0709 0.3830
vn 0.4716 0.8482 -0.2412
vn 0.3851 -0.8857 0.2595
vn 0.8755 0.1672 -0.4533
vn 0.9425 -0.3278 -0.0647
vn 0.8909 0.4515 -0.0498
vn 0.7902 0.4616 -0.4032
vn -0.6753 -0.7337 -0.0745
vn -0.7143 0.6959 -0.0745
vn -0.8149 -0.5762 0.0629
vn -0.9517 0.2901 0.1004
vn -0.7316 -0.6060 0.3123
vn -0.1683 -0.3454 -0.9232
vn -0.3816 -0.7385 0.5558
vn -0.3140 -0.2854 0.9055
vn -0.1956 0.7435 0.6395
vn -0.2941 0.8953 0.3346
vn -0.3304 0.8926 -0.3069
vn -0.2891 -0.9303 -0.2256
vn -0.3868 -0.7186 -0.5779
vn -0.2840 -0.9388 0.1949
vn -0.3548 0.4697 0.8084
vn -0.2125 0.7134 -0.6677
vn -0.1188 0.3032 -0.9455
vn -0.9042 0.2649 -0.3351
vn -0.7867 -0.5655 -0.2477
vn -0.9465 0.0086 0.3225
vn -0.8411 -0.4979 -0.2114
vn -0.8410 -0.1870 -0.5077
vn -0.9794 -0.1853 -0.0805
vn -0.9701 -0.1760 -0.1670
vn -0.9713 0.2355 0.0323
vn -0.8836 -0.3522 0.3085
vn -0.8052 -0.2212 -0.5502
vn -0.8137 -0.3298 -0.4787
vn -0.9360 -0.1665 0.3100
vn -0.8547 -0.0339 -0.5181
vn -0.9009 -0.2220 0.3729
vt 0.262707 0.245684
vt 0.659881 0.318030
vt 0.321778 0.226940
vt 0.812568 0.771493
vt 0.061832 0.188148
vt 0.229900 0.551064
vt 0.812568 0.561525
vt 0.792500 0.311014
vt 0.492019 0.318280
vt 0.600766 0.303361
vt 0.357679 0.251795
vt 0.766901 0.666400
vt 0.229900 0.665605
vt 0.712060 0.322371
vt 0.156599 0.205679
vt 0.901661 0.314505
vt 0.394987 0.341293
vt 0.459729 0.029572
vt 0.404382 0.038212
vt 1.000000 0.040176
vt 0.472397 0.264910
vt 0.667229 0.730225
vt 0.820995 0.045590
vt 0.769317 0.058019
vt 0.642457 0.774619
vt 0.773613 0.530797
vt 0.779382 0.262793
vt 0.501493 0.006826
vt 0.508653 0.541280
vt 0.325058 0.522703
vt 0.554325 0.035480
vt 0.593135 0.764110
vt 0.576578 0.831617
vt 0.299504 0.089207
vt 0.684567 0.452749
vt 0.673003 0.381122
vt 0.300190 0.161823
vt 0.327295 0.712990
vt 0.145594 0.544635
vt 0.097637 0.057480
vt 0.187636 0.547129
vt 0.077469 0.124300
vt 0.800200 0.445144
vt 0.796290 0.375405
vt 0.528591 0.460490
vt 0.511264 0.387439
vt 0.192699 0.657598
vt 0.716162 0.386803
vt 0.327295 0.815502
vt 0.155668 0.646968
vt 0.724340 0.456239
vt 0.617382 0.374106
vt 0.357387 0.179281
vt 0.356556 0.103347
vt 0.629349 0.449021
vt 0.898129 0.385946
vt 0.417626 0.408417
vt 0.892458 0.460281
vt 0.443372 0.478018
vt 0.172663 0.136411
vt 0.186053 0.064384
vt 0.277608 0.290053
vt 0.045285 0.237110
vt 0.792793 0.780578
vt 0.603315 0.238054
vt 0.356062 0.315902
vt 0.696764 0.269149
vt 0.732919 0.670173
vt 0.150417 0.257705
vt 0.357679 0.283161
vt 0.909404 0.248467
vt 0.429394 0.246642
vt 0.999706 0.251087
vt 0.503176 0.232614
vt 0.741581 0.560097
vt 0.745899 0.243127
vt 0.811345 0.237050
vt 0.671251 0.207398
vt 0.282486 0.333228
vt 0.027721 0.276698
vt 0.773367 0.790575
vt 0.603339 0.185190
vt 0.357679 0.368205
vt 0.590701 0.128991
vt 0.684567 0.674977
vt 0.684567 0.169673
vt 0.565760 0.900114
vt 0.707457 0.675983
vt 0.687509 0.221667
vt 0.132882 0.358715
vt 0.142181 0.304451
vt 0.914768 0.193880
vt 0.917849 0.136384
vt 0.410915 0.204317
vt 1.000000 0.204453
vt 0.399691 0.148856
vt 0.998680 0.146745
vt 0.494094 0.132034
vt 0.502450 0.187438
vt 0.737953 0.202055
vt 0.739221 0.150866
vt 0.648040 0.858804
vt 0.823507 0.139212
vt 0.818364 0.193229
vt 0.291391 0.486366
vt 0.240381 0.487988
vt 0.255864 0.537446
vt 0.444659 0.564580
vt 0.575142 0.030316
vt 0.300396 0.523762
vt 0.546474 0.013285
vt 0.288235 0.544635
vt 0.464898 0.542029
vt 0.657940 0.135945
vt 0.315200 0.407008
vt 0.249115 0.390059
vt 0.684567 0.164989
vt 0.295290 0.373509
vt 0.484626 0.829320
vt 0.450753 0.784317
vt 0.534589 0.815006
vt 0.517318 0.762372
vt 0.554385 0.789641
vt 0.031102 0.340756
vt 0.399660 0.852582
vt 0.719845 0.771456
vt 0.463389 0.892091
vt 0.000000 0.308269
vt 0.746157 0.806047
vt 0.420576 0.900114
vt 0.807912 0.506420
vt 0.145594 0.752852
vt 0.179574 0.741652
vt 0.001910 0.787440
vt 0.231579 0.748570
vt 0.067073 0.569134
vt 0.300047 0.695814
vt 0.290333 0.719152
vt 0.129378 0.004980
vt 0.069730 0.544635
vt 0.332358 0.712990
vt 0.545488 0.522109
vt 0.229900 0.673673
vt 0.127749 0.768401
vt 0.265992 0.667374
vt 0.296193 0.027699
vt 0.674696 0.516411
vt 0.238638 0.544635
vt 0.332358 0.544635
vt 0.092563 0.783310
vt 0.273185 0.558743
vt 0.299028 0.551888
vt 0.747798 0.524369
vt 0.281280 0.800667
vt 0.145594 0.575800
vt 0.172670 0.809445
vt 0.204202 0.771307
vt 0.138452 0.620150
vt 0.047537 0.801466
vt 0.278784 0.739163
vt 0.108229 0.594093
vt 0.092563 0.739734
vt 0.281280 0.590034
vt 0.009994 0.723788
vt 0.127749 0.815829
vt 0.279367 0.621871
vt 0.041394 0.739734
vt 0.626525 0.522291
vt 0.239112 0.593161
vt 0.103389 0.739734
vt 0.204202 0.665605
vt 0.281280 0.701747
vt 0.121716 0.723763
vt 0.198493 0.697736
vt 0.145594 0.697736
vt 0.000000 0.739734
vt 0.481738 0.541280
vt 0.880424 0.530797
vt 0.241846 0.739163
vt 0.158402 0.677432
vt 0.229900 0.807451
vt 0.281798 0.648200
vt 0.026051 0.611408
vt 0.047537 0.801391
vt 0.281280 0.605348
vt 0.000000 0.648097
vt 0.205879 0.000000
vt 0.317100 0.637861
vt 0.092563 0.791832
vt 0.074504 0.709543
vt 0.048547 0.752654
vt 0.032917 0.684052
vt 0.278784 0.800905
vt 0.066513 0.639611
vt 0.107204 0.669506
vt 0.047537 0.743050
vt 0.397410 0.643899
vt 0.169705 0.495622
vt 0.422403 0.713042
vt 0.125607 0.456572
vt 0.377790 0.699431
vt 0.877496 0.013319
vt 0.654426 0.663082
vt 0.369823 0.027507
vt 0.627359 0.596709
vt 0.954432 0.010839
vt 0.920789 0.028832
vt 0.492916 0.698299
vt 0.196567 0.544013
vt 0.453360 0.595533
vt 0.438561 0.000000
vt 0.558425 0.569777
vt 0.603319 0.682221
vt 0.827068 0.086528
vt 0.483226 0.076189
vt 0.395768 0.090008
vt 0.995350 0.087428
vt 0.343593 0.475896
vt 0.574363 0.080314
vt 0.747001 0.102472
vt 0.641527 0.820526
vt 0.480034 0.861791
vt 0.918724 0.079867
vt 0.039961 0.384254
vt 0.411689 0.813407
vt 0.570788 0.868045
vt 0.357679 0.735536
vt 0.128591 0.406968
vt 0.232788 0.432431
vt 0.633738 0.096684
vt 0.307181 0.449301
vt 0.418152 0.667343
vt 0.916727 0.000000
vt 0.635577 0.620655
vt 0.462363 0.644259
vt 0.596737 0.616632
vt 0.539878 0.584389
vt 0.498827 0.593771
vt 0.523090 0.657243
vt 0.565750 0.650352
vt 0.556076 0.615108
vt 0.508806 0.624799
vt 0.555656 0.724124
vt 0.493232 0.560130
s 0
usemtl Material
f 98/184/1 101/191/1 91/162/1 87/150/1
f 41/71/2 45/77/2 63/104/2 54/92/2
f 74/121/3 76/123/3 18/32/3 19/33/3
f 93/168/4 84/142/4 26/45/4 31/55/4
f 113/213/5 107/203/5 13/22/5 14/25/5 18/32/5
f 29/51/6 24/43/6 80/131/6 88/153/6
f 82/135/7 90/160/7 102/193/7 97/181/7
f 32/56/8 25/44/8 4/8/8 9/16/8
f 27/46/9 32/57/9 9/17/9 5/9/9
f 96/177/10 33/59/10 26/45/10 84/142/10
f 100/189/11 94/170/11 85/144/11 92/165/11
f 9/16/12 4/8/12 15/27/12 45/77/12 41/71/12
f 37/64/13 39/68/13 7/12/13 3/4/13
f 5/9/14 9/17/14 41/70/14 42/72/14 12/21/14
f 6/10/15 5/9/15 12/21/15 43/74/15 38/65/15
f 39/68/16 44/75/16 15/26/16 4/7/16 7/12/16
f 8/15/17 3/5/17 23/42/17 34/60/17
f 22/38/18 29/49/18 88/154/18 83/138/18
f 37/63/19 40/69/19 53/91/19 47/80/19
f 134/241/20 129/236/20 113/213/20 133/240/20
f 20/34/21 35/61/21 99/187/21 86/146/21
f 40/69/22 37/63/22 3/5/22 8/15/22
f 1/1/23 8/15/23 34/60/23 21/37/23 2/3/23
f 55/93/24 62/103/24 114/214/24 120/223/24
f 35/61/25 22/40/25 83/139/25 99/187/25
f 42/72/26 43/74/26 12/21/26
f 21/36/27 30/52/27 6/10/27 2/2/27
f 30/52/28 27/46/28 5/9/28 6/10/28
f 44/76/29 39/67/29 51/89/29 60/100/29
f 3/6/30 7/13/30 28/47/30 23/41/30
f 80/131/31 24/43/31 33/58/31 96/178/31
f 38/65/32 43/74/32 59/99/32 48/82/32
f 72/119/33 74/121/33 19/33/33 122/226/33 119/222/33
f 7/14/34 4/8/34 25/44/34 28/48/34
f 60/100/35 63/104/35 45/77/35 44/76/35
f 44/76/36 45/77/36 15/27/36
f 2/3/37 6/11/37 38/66/37 36/62/37 1/1/37
f 56/94/38 59/99/38 43/74/38 42/72/38
f 49/84/39 69/114/39 71/117/39 46/78/39 48/82/39
f 111/210/40 131/238/40 135/242/40 128/235/40
f 52/90/41 77/124/41 79/128/41 47/80/41 53/91/41
f 16/28/42 68/111/42 67/109/42 17/31/42
f 69/114/43 49/84/43 117/219/43 125/230/43
f 29/50/44 22/39/44 23/41/44 28/47/44
f 33/58/45 24/43/45 25/44/45 32/56/45
f 35/61/46 20/34/46 21/37/46 34/60/46
f 31/55/47 26/45/47 27/46/47 30/52/47
f 24/43/48 29/51/48 28/48/48 25/44/48
f 20/34/49 31/54/49 30/53/49 21/37/49
f 26/45/50 33/59/50 32/57/50 27/46/50
f 22/40/51 35/61/51 34/60/51 23/42/51
f 86/147/52 93/168/52 31/55/52 20/35/52
f 16/28/53 10/18/53 11/19/53 108/204/53 112/211/53
f 104/198/54 106/200/54 123/228/54 124/229/54 65/106/54
f 40/69/55 36/62/55 46/79/55 53/91/55
f 39/68/56 37/64/56 47/81/56 51/88/56
f 57/96/57 116/216/57 115/215/57 58/98/57
f 49/84/58 58/98/58 115/215/58 117/219/58
f 57/97/59 55/93/59 120/223/59 116/217/59
f 13/23/60 114/214/60 118/220/60 14/24/60
f 42/73/61 41/71/61 54/92/61 56/95/61
f 19/33/62 18/32/62 14/25/62 118/221/62 122/226/62
f 36/62/63 40/69/63 8/15/63 1/1/63
f 71/118/64 70/116/64 52/90/64 53/91/64 46/79/64
f 79/129/65 78/126/65 50/85/65 51/88/65 47/81/65
f 57/96/66 58/98/66 59/99/66 56/94/66
f 58/98/67 49/84/67 48/82/67 59/99/67
f 55/93/68 57/97/68 56/95/68 54/92/68
f 61/101/69 62/103/69 63/104/69 60/100/69
f 62/103/70 55/93/70 54/92/70 63/104/70
f 50/86/71 61/101/71 60/100/71 51/89/71
f 36/62/72 38/66/72 48/83/72 46/79/72
f 66/107/73 67/110/73 68/112/73
f 69/115/74 70/116/74 71/118/74
f 64/105/75 67/110/75 66/107/75 65/106/75
f 65/106/76 124/229/76 125/231/76 64/105/76
f 73/120/77 121/225/77 123/227/77 106/201/77 105/199/77
f 74/121/78 75/122/78 76/123/78
f 77/125/79 78/127/79 79/130/79
f 74/121/80 72/119/80 73/120/80 75/122/80
f 72/119/81 119/222/81 121/225/81 73/120/81
f 105/199/82 110/208/82 75/122/82 73/120/82
f 88/155/83 89/158/83 90/161/83
f 91/163/84 92/166/84 93/169/84
f 94/171/85 95/174/85 96/180/85
f 97/182/86 98/185/86 99/188/86
f 100/190/87 101/192/87 102/194/87 103/195/87
f 90/161/88 82/136/88 83/140/88 88/155/88
f 93/169/89 86/148/89 87/151/89 91/163/89
f 96/179/90 84/143/90 85/145/90 94/172/90
f 99/188/91 83/141/91 82/137/91 97/182/91
f 81/133/92 89/157/92 88/156/92 80/132/92
f 84/143/93 93/169/93 92/166/93 85/145/93
f 100/190/94 92/167/94 91/164/94 101/192/94
f 80/132/95 96/180/95 95/174/95 81/133/95
f 86/149/96 99/188/96 98/185/96 87/152/96
f 89/158/97 103/195/97 102/194/97 90/161/97
f 101/192/98 98/186/98 97/183/98 102/194/98
f 94/173/99 100/190/99 103/195/99 95/175/99
f 89/159/100 81/134/100 95/176/100 103/196/100
f 104/197/101 126/232/101 105/199/101 106/201/101
f 107/202/102 127/233/102 108/206/102 109/207/102
f 128/235/103 126/232/103 104/197/103 111/210/103
f 127/234/104 129/236/104 112/212/104 108/205/104
f 65/106/105 66/107/105 111/209/105 104/198/105
f 119/222/106 122/226/106 50/87/106 78/127/106
f 125/231/107 124/229/107 70/116/107 69/115/107
f 125/231/108 117/218/108 17/30/108 67/110/108 64/105/108
f 115/215/109 116/216/109 11/19/109 10/18/109
f 116/217/110 120/223/110 109/207/110 108/206/110 11/20/110
f 120/223/111 114/214/111 13/23/111 107/202/111 109/207/111
f 123/228/112 121/224/112 77/124/112 52/90/112
f 121/225/113 119/222/113 78/127/113 77/125/113
f 124/229/114 123/228/114 52/90/114 70/116/114
f 117/219/115 115/215/115 10/18/115 16/28/115 17/31/115
f 118/220/116 114/214/116 62/103/116 61/101/116
f 122/226/117 118/221/117 61/102/117 50/87/117
f 107/203/118 113/213/118 129/236/118 127/234/118
f 110/208/119 105/199/119 126/232/119 128/235/119
f 16/29/120 112/212/120 137/244/120
f 128/235/121 135/242/121 132/239/121 110/208/121
f 113/213/122 136/243/122 110/208/122 132/239/122 133/240/122
f 130/237/123 134/241/123 135/242/123 131/238/123
f 134/241/124 133/240/124 132/239/124 135/242/124
f 130/237/125 112/212/125 129/236/125 134/241/125
f 66/108/126 137/244/126 111/210/126
f 75/122/127 136/243/127 18/32/127 76/123/127
f 110/208/128 136/243/128 75/122/128
f 111/210/129 137/244/129 112/212/129 130/237/129 131/238/129
f 18/32/130 136/243/130 113/213/130
f 137/244/131 66/108/131 68/113/131 16/29/131
